<?xml version="1.0" standalone="no"?>
<!DOCTYPE svg PUBLIC "-//W3C//DTD SVG 20010904//EN"
 "http://www.w3.org/TR/2001/REC-SVG-20010904/DTD/svg10.dtd">
<svg version="1.0" xmlns="http://www.w3.org/2000/svg"
 width="446.000000pt" height="446.000000pt" viewBox="0 0 446.000000 446.000000"
 preserveAspectRatio="xMidYMid meet">
<metadata>
Created by potrace 1.14, written by Peter Selinger 2001-2017
</metadata>
<g transform="translate(0.000000,446.000000) scale(0.100000,-0.100000)"
fill="#000000" stroke="none">
<path d="M3063 4139 c-58 -7 -110 -39 -124 -76 -5 -13 -9 -50 -9 -81 0 -53 -2
-58 -28 -70 -76 -33 -132 -126 -140 -231 -5 -84 9 -136 54 -195 41 -54 48 -38
-67 -166 -86 -96 -99 -116 -99 -158 0 -62 61 -102 158 -102 78 0 123 36 302
243 17 20 37 37 42 37 17 0 1 -115 -22 -160 -26 -50 -26 -110 0 -142 10 -14
51 -42 90 -62 l70 -37 -27 -37 c-15 -20 -45 -59 -67 -87 -22 -27 -41 -51 -41
-53 -1 -1 -53 22 -116 52 -183 86 -340 130 -552 157 -125 15 -420 7 -542 -16
-216 -40 -428 -134 -607 -272 l-57 -44 -58 23 c-69 28 -108 76 -99 123 7 34
51 77 119 117 25 15 53 41 62 59 35 66 -13 150 -93 164 -24 4 -42 12 -42 20 0
7 -3 27 -6 44 -10 50 15 39 81 -36 120 -138 177 -188 227 -202 54 -15 111 -8
157 20 44 27 57 59 43 106 -12 38 -24 53 -140 176 l-65 68 26 27 c48 51 70
108 71 185 1 91 -23 161 -72 211 -39 41 -122 86 -158 86 -13 0 -30 14 -45 37
-44 68 -146 99 -299 90 -323 -19 -548 -240 -589 -578 -24 -202 35 -349 203
-506 l76 -71 -30 -30 c-25 -25 -30 -38 -30 -78 0 -45 3 -51 52 -97 92 -87 294
-227 326 -227 7 0 12 -4 12 -10 0 -15 -19 -12 -48 9 -110 78 -332 106 -479 62
-113 -35 -275 -133 -289 -174 -7 -21 23 -107 37 -107 5 0 9 -6 9 -13 0 -26 98
-154 152 -198 29 -24 55 -46 58 -49 34 -38 177 -86 287 -95 l80 -7 22 -68 c32
-99 122 -236 223 -338 103 -104 200 -173 325 -233 50 -24 92 -50 92 -57 1 -7
-36 -50 -81 -95 -48 -48 -101 -113 -127 -156 -61 -103 -196 -378 -274 -556
-36 -82 -77 -176 -91 -207 l-26 -58 1380 0 c759 0 1380 2 1380 5 0 19 -221
581 -248 631 -6 10 -39 76 -73 146 -49 99 -75 140 -120 186 -51 51 -148 112
-179 112 -20 0 -1 18 26 24 45 12 202 93 267 139 99 69 174 138 235 214 84
106 152 289 152 407 l0 56 68 0 c176 0 303 55 425 185 73 78 164 248 152 285
-13 40 -184 137 -291 164 -77 20 -200 20 -281 1 -69 -16 -184 -67 -203 -90 -7
-8 -17 -15 -23 -15 -6 0 28 39 74 88 47 48 95 101 106 117 33 48 55 124 48
167 -8 45 -49 98 -76 98 -10 0 -19 3 -19 7 0 4 24 57 54 118 85 172 101 236
101 390 0 115 -3 137 -25 190 -75 185 -214 333 -397 425 -121 60 -237 83 -350
69z m118 -465 c30 -6 31 -8 26 -46 -3 -22 -8 -42 -10 -45 -8 -7 -118 16 -133
28 -22 18 -17 58 9 69 21 9 38 8 108 -6z m-1917 -120 c38 -37 3 -71 -82 -80
-60 -7 -62 -6 -62 17 0 13 -3 34 -6 46 -5 19 -1 22 33 26 81 8 102 7 117 -9z
m-429 -110 c8 -60 22 -160 31 -223 8 -62 14 -124 12 -138 l-3 -23 -40 20 c-92
48 -136 146 -115 253 17 89 82 239 96 224 2 -2 11 -53 19 -113z m2664 -19 c1
-42 -20 -123 -39 -153 -9 -14 -10 -11 -6 17 3 18 11 74 18 123 12 91 26 97 27
13z"/>
</g>
</svg>
